<?xml version="1.0" encoding="UTF-8" standalone="no"?>
<!-- Created with Inkscape (http://www.inkscape.org/) -->

<svg
   width="125mm"
   height="125mm"
   viewBox="0 0 125 125"
   version="1.1"
   id="svg1"
   inkscape:version="1.4.2 (ebf0e94, 2025-05-08)"
   sodipodi:docname="RawSpaw_logo_web.svg"
   xmlns:inkscape="http://www.inkscape.org/namespaces/inkscape"
   xmlns:sodipodi="http://sodipodi.sourceforge.net/DTD/sodipodi-0.dtd"
   xmlns="http://www.w3.org/2000/svg"
   xmlns:svg="http://www.w3.org/2000/svg">
  <sodipodi:namedview
     id="namedview1"
     pagecolor="#ffffff"
     bordercolor="#000000"
     borderopacity="0.25"
     inkscape:showpageshadow="2"
     inkscape:pageopacity="0.0"
     inkscape:pagecheckerboard="0"
     inkscape:deskcolor="#d1d1d1"
     inkscape:document-units="mm"
     inkscape:zoom="1.6168981"
     inkscape:cx="307.37868"
     inkscape:cy="485.80674"
     inkscape:window-width="3840"
     inkscape:window-height="2054"
     inkscape:window-x="-11"
     inkscape:window-y="-11"
     inkscape:window-maximized="1"
     inkscape:current-layer="layer1" />
  <defs
     id="defs1">
    <rect
       x="110.08733"
       y="275.21832"
       width="374.17322"
       height="237.49178"
       id="rect1" />
  </defs>
  <g
     inkscape:label="Warstwa 1"
     inkscape:groupmode="layer"
     id="layer1"
     transform="translate(-23.77087,-19.955435)">
    <path
       sodipodi:type="star"
       style="fill:#ffd42a;stroke-width:0.264583"
       id="path1"
       inkscape:flatsided="false"
       sodipodi:sides="5"
       sodipodi:cx="63.981819"
       sodipodi:cy="132.70909"
       sodipodi:r1="58.353058"
       sodipodi:r2="29.176529"
       sodipodi:arg1="1.2836371"
       sodipodi:arg2="1.9119556"
       inkscape:rounded="0"
       inkscape:randomized="0"
       d="m 80.509093,188.67273 -26.28915,-28.46863 -38.355496,5.51708 18.951477,-33.79976 -17.09955,-34.773374 38.001807,7.579224 27.787393,-27.008199 4.534931,38.483979 34.273105,18.08138 -35.199068,16.20518 z"
       inkscape:transform-center-x="-5.1072081"
       inkscape:transform-center-y="0.48680815"
       transform="translate(26.457261,-55.212783)" />
    <path
       style="font-weight:bold;font-family:Cambria;-inkscape-font-specification:'Cambria Bold';white-space:pre;fill:#0000ff"
       d="m 113.72656,286.13725 h -3.07617 v -0.38672 q 0.2168,-0.0586 0.33984,-0.12304 0.12891,-0.0703 0.1875,-0.1875 0.0645,-0.12305 0.082,-0.30469 0.0176,-0.1875 0.0176,-0.46875 v -5.05078 q 0,-0.27539 -0.0176,-0.46289 -0.0117,-0.1875 -0.0762,-0.30469 -0.0586,-0.11719 -0.1875,-0.1875 -0.12304,-0.0762 -0.3457,-0.13477 v -0.38671 h 3.41602 q 0.6914,0 1.17187,0.0996 0.48633,0.0937 0.84961,0.29297 0.30469,0.16407 0.51563,0.41602 0.21093,0.24609 0.32226,0.58008 0.11719,0.32812 0.11719,0.76758 0,0.57421 -0.20508,0.98437 -0.19922,0.41016 -0.54492,0.68555 -0.33984,0.26953 -0.91406,0.50976 v 0.0586 q 0.43359,0.1875 0.71484,0.5039 0.28711,0.31055 0.51563,0.79102 l 0.36914,0.79687 q 0.24609,0.53321 0.48632,0.80274 0.2461,0.26367 0.58008,0.32226 v 0.38672 h -2.25586 q -0.33984,-0.46875 -0.76758,-1.39453 l -0.45703,-1.00195 q -0.20507,-0.44531 -0.35156,-0.63281 -0.14648,-0.1875 -0.30469,-0.25782 -0.15234,-0.0703 -0.47461,-0.0703 h -0.33984 v 1.88672 q 0,0.43945 0.041,0.61523 0.041,0.17578 0.1582,0.28125 0.11719,0.10547 0.43359,0.1875 z m -0.63281,-7.30078 v 3.25781 h 0.58008 q 0.46875,0 0.77344,-0.12304 0.30468,-0.12891 0.48046,-0.35157 0.18165,-0.22851 0.2461,-0.5332 0.0703,-0.30469 0.0703,-0.66797 0,-0.79687 -0.375,-1.19531 -0.375,-0.39844 -1.11328,-0.39844 -0.50391,0 -0.66211,0.0117 z m 9.66211,4.82227 h -2.50195 l -0.19336,0.55664 q -0.082,0.23437 -0.13477,0.45703 -0.0527,0.2168 -0.0527,0.46289 0,0.57422 0.60937,0.61523 v 0.38672 h -2.50195 v -0.38672 q 0.2168,-0.0234 0.38086,-0.15234 0.16406,-0.12891 0.29883,-0.35156 0.13476,-0.22266 0.28711,-0.63867 l 2.44336,-6.50977 h 1.56445 l 1.93359,6.5625 q 0.12891,0.43945 0.2168,0.62695 0.0879,0.18164 0.22851,0.29883 0.14063,0.11133 0.39258,0.16406 v 0.38672 h -3.23437 v -0.38672 q 0.30469,-0.0352 0.45117,-0.16992 0.14648,-0.13476 0.14648,-0.38086 0,-0.18164 -0.041,-0.40429 -0.041,-0.22266 -0.13477,-0.5625 z m -2.2793,-0.68555 h 2.10938 l -0.9375,-3.29883 z m 14.25,-2.82422 q 0.082,-0.26953 0.14063,-0.53906 0.0586,-0.27539 0.0586,-0.46875 0,-0.30469 -0.15234,-0.44531 -0.14649,-0.14649 -0.44532,-0.16993 v -0.38671 h 2.44336 v 0.38671 q -0.21679,0.0469 -0.36328,0.16993 -0.14648,0.11718 -0.26367,0.33398 -0.11719,0.2168 -0.29297,0.72656 l -2.19726,6.42188 h -1.39453 l -1.32422,-5.50196 -1.57032,5.50196 h -1.46484 l -1.76367,-6.5625 q -0.12891,-0.48047 -0.22852,-0.66797 -0.0996,-0.1875 -0.22265,-0.28125 -0.12305,-0.0937 -0.31055,-0.14063 v -0.38671 h 3.15234 v 0.38671 q -0.30468,0.0352 -0.45117,0.16993 -0.14648,0.13476 -0.14648,0.38086 0,0.31054 0.16992,0.96679 l 1.01367,4.07227 1.68164,-5.97656 h 1.32422 l 1.37109,5.97656 z"
       id="text1"
       transform="matrix(2.7967617,0,0,8.4426086,-275.21595,-2296.414)"
       aria-label="RAW" />
    <path
       style="font-weight:bold;font-size:25.4px;font-family:'Comic Sans MS';-inkscape-font-specification:'Comic Sans MS Bold';fill:#ff0000;stroke-width:0.264583"
       d="m 33.874425,143.93564 q -3.150196,0 -4.960938,-1.40147 -1.525488,-1.16582 -1.525488,-2.69131 0,-0.78135 0.471289,-1.28984 0.471289,-0.5209 1.302246,-0.5209 1.116211,0 1.637109,1.14102 0.706934,1.52548 3.199805,1.52548 2.133203,0 4.12998,-0.93017 2.071192,-0.95498 2.071192,-2.096 0,-1.56269 -1.289844,-2.05879 -0.917773,-0.35967 -3.683496,-0.42168 -2.145605,-0.0496 -3.844726,-0.80615 -2.294434,-1.02939 -2.257227,-2.95176 0.03721,-2.41845 2.579688,-4.42763 2.54248,-2.02159 5.605859,-2.02159 1.215429,0 3.001367,0.55811 2.220019,0.69453 2.220019,1.5999 0,0.64492 -0.446484,1.14102 -0.496094,0.5581 -1.277441,0.5581 -0.58291,0 -1.748731,-0.24804 -1.153418,-0.24805 -1.74873,-0.24805 -1.599903,0.0124 -3.038574,0.76894 -1.488282,0.76895 -1.488282,1.67432 0,0.47129 0.446485,0.78135 0.458886,0.29766 1.364258,0.42168 1.5875,0.0868 3.162597,0.17363 2.75332,0.21084 4.353223,1.55029 1.761133,1.48829 1.761133,4.11758 0,3.19981 -3.646289,4.84932 -2.778125,1.25264 -6.35,1.25264 z m 15.651757,-7.67706 q -0.210839,0 -1.041796,-0.0868 -0.07441,1.73633 -0.07441,5.70508 0,0.65732 -0.458887,1.12861 -0.458887,0.47129 -1.16582,0.47129 -0.706934,0 -1.178223,-0.47129 -0.458887,-0.47129 -0.458887,-1.12861 v -3.46026 q 0,-1.92236 0.248047,-5.69267 0.235645,-3.83233 0.248047,-5.71748 0.0124,-3.22461 1.810742,-3.08819 0.42168,-0.11162 1.16582,-0.16123 0.744141,-0.062 1.810743,-0.062 2.430859,0 4.564062,1.5751 2.368848,1.76113 2.368848,4.29121 0,3.175 -2.517676,5.04775 -2.232422,1.64951 -5.320606,1.64951 z m 0.620118,-9.36376 q -0.396875,0 -0.706934,0.0124 -0.297656,0 -0.508496,0.0248 0,0.58291 -0.0124,1.74873 -0.02481,1.37666 -0.235645,4.29121 0.63252,0.0992 0.843359,0.0992 1.934766,0 3.212207,-0.91777 1.364258,-0.97979 1.364258,-2.59209 0,-1.0542 -1.277441,-1.87275 -1.227832,-0.79375 -2.678906,-0.79375 z m 23.2916,16.65634 q -0.979785,-0.0372 -1.971972,-2.30683 -0.657325,-1.46348 -1.128614,-3.37344 -0.917773,0.13643 -3.001367,0.27285 -1.95957,0.13643 -3.001367,0.32246 -0.570508,1.36426 -1.984375,4.10518 -0.545703,0.89297 -1.513086,0.89297 -0.682129,0 -1.227832,-0.45889 -0.545703,-0.47129 -0.545703,-1.19063 0,-0.63251 1.810742,-4.29121 -0.173633,-0.38447 -0.148828,-0.71933 0.04961,-0.59531 1.203027,-0.93018 1.761133,-3.05097 3.919141,-6.32519 3.100586,-4.70049 3.819922,-4.70049 1.364258,0 1.823144,1.64951 0.248047,1.32705 0.781348,3.98115 0.756543,3.57188 1.847949,8.17315 0.08682,0.34726 0.63252,1.63711 0.446484,1.0666 0.446484,1.5999 0,0.71933 -0.545703,1.20303 -0.533301,0.48369 -1.21543,0.45888 z m -4.626074,-12.7248 q -0.967383,1.66191 -2.666504,4.52685 0.558106,-0.12402 1.736328,-0.19843 1.389063,-0.0868 1.748731,-0.13643 -0.297656,-1.6123 -0.818555,-4.19199 z m 33.151464,-3.55947 q -0.21084,0.50849 -0.49609,1.25263 -0.21084,0.71934 -0.68213,2.13321 -0.70693,1.82314 -2.244825,5.3082 -1.575097,3.54707 -2.257226,5.2958 -0.508496,1.30225 -0.95498,2.08359 -0.582911,1.0294 -1.773536,1.0294 -0.706933,0 -1.277441,-0.38448 -0.669727,-0.44648 -0.719336,-1.17822 -0.570508,-1.42627 -0.719336,-2.33164 -0.545703,-2.6541 -1.513086,-7.97471 -0.806152,2.49288 -1.736328,4.47725 -1.389062,2.97656 -1.823144,4.67568 0.111621,0.27286 0.111621,0.58291 0,0.76895 -0.682129,1.25264 -0.595313,0.40928 -1.314649,0.40928 -0.905371,0 -1.500683,-0.45889 -0.644922,-0.50849 -0.669727,-1.38906 l -0.384472,-1.45108 q -0.409278,-1.93476 -1.339453,-5.77949 -0.818555,-2.93935 -2.740918,-8.37158 -0.111622,-0.31006 -0.111622,-0.62012 0,-0.74414 0.570508,-1.17822 0.508496,-0.39687 1.227832,-0.39687 0.942578,0 1.500684,0.79375 0.310058,0.43408 0.706933,1.57509 1.21543,3.49746 2.740918,10.19473 0.992188,-2.41846 2.021582,-5.70508 0.830957,-2.6789 1.351856,-3.80752 1.240234,-2.70371 2.530078,-2.70371 1.21543,0 1.773535,1.32705 0.272852,0.63252 0.533301,2.29444 0.07441,0.50849 0.322461,2.49287 0.260449,2.1332 1.562695,7.76386 1.314648,-3.07578 3.534668,-8.86767 0.136426,-0.34727 0.644922,-2.28203 0.359668,-1.38907 0.905371,-2.19522 0.595312,-0.86816 1.587496,-0.86816 0.75655,0 1.25264,0.47129 0.49609,0.45888 0.49609,1.19062 0,0.26045 -0.43408,1.33946 z m 3.95635,12.22871 q -0.69453,0 -1.15342,-0.43409 -0.44648,-0.43408 -0.44648,-1.0914 0,-0.48369 -0.0372,-1.43867 -0.0248,-0.96739 -0.0248,-1.45108 0,-1.71152 0.0248,-5.13457 0.0372,-3.42304 0.0372,-5.13457 0,-0.65732 0.45889,-1.0914 0.45888,-0.44649 1.14101,-0.44649 0.68213,0 1.14102,0.44649 0.45888,0.43408 0.45888,1.0914 v 13.15889 q 0,0.65732 -0.45888,1.0914 -0.44649,0.43409 -1.14102,0.43409 z m -0.0372,4.50205 q -0.74414,0 -1.38906,-0.79375 -0.58291,-0.73174 -0.58291,-1.36426 0,-0.64492 0.5085,-1.079 0.50849,-0.43409 1.15342,-0.43409 0.74414,0 1.37666,0.79375 0.58291,0.73174 0.58291,1.35186 0,0.63252 -0.5085,1.079 -0.49609,0.44649 -1.14102,0.44649 z"
       id="text2"
       transform="rotate(-2.8354663)"
       aria-label="SPAW!" />
  </g>
</svg>
